<svg xmlns="http://www.w3.org/2000/svg" id="Layer_1" viewBox="0 0 512 512"><path d="m300.904 190.191c8.809-10.317 14.146-23.685 14.146-38.283 0-24.142-14.57-44.934-35.372-54.078v-65.153c0-13.055-10.621-23.677-23.677-23.677s-23.678 10.622-23.678 23.677v65.153c-20.803 9.144-35.372 29.936-35.372 54.078 0 14.598 5.336 27.966 14.146 38.284l-64.262 239.83c-.304 1.133-.317 2.324-.04 3.465l15.597 64.167c.756 3.108 3.521 5.309 6.72 5.346h.082c3.164 0 5.939-2.125 6.761-5.188l76.886-286.941c1.047.056 2.1.087 3.16.087s2.113-.031 3.16-.087l76.886 286.941c.821 3.063 3.597 5.188 6.761 5.188.027 0 .056 0 .083-.001 3.198-.037 5.964-2.237 6.72-5.346l15.597-64.167c.277-1.141.264-2.332-.04-3.465zm-54.581-157.514c0-5.336 4.341-9.677 9.678-9.677 5.336 0 9.677 4.341 9.677 9.677v60.988c-3.151-.522-6.381-.806-9.677-.806-3.297 0-6.527.285-9.678.806zm-76.8 435.044-8.702-35.805 61.956-231.223c4.924 3.364 10.382 5.997 16.218 7.756zm41.428-315.813c0-24.84 20.209-45.049 45.05-45.049 24.84 0 45.049 20.209 45.049 45.049s-20.209 45.049-45.049 45.049c-24.841 0-45.05-20.209-45.05-45.049zm131.528 315.813-69.473-259.271c5.835-1.758 11.293-4.392 16.218-7.756l61.957 231.223zm-306.314-155.585c1.038 3.724-1.14 7.584-4.863 8.623-4.425 1.233-8.869 2.548-13.209 3.906-.696.219-1.401.322-2.094.322-2.979 0-5.741-1.917-6.678-4.91-1.155-3.689.898-7.617 4.588-8.771 4.48-1.403 9.066-2.76 13.633-4.033 3.727-1.038 7.584 1.139 8.623 4.863zm54.821-11.306c.636 3.813-1.939 7.42-5.753 8.056-4.551.759-9.13 1.58-13.609 2.44-.446.086-.891.127-1.328.127-3.29 0-6.223-2.33-6.866-5.681-.729-3.797 1.757-7.466 5.554-8.194 4.592-.882 9.284-1.724 13.947-2.501 3.809-.64 7.42 1.939 8.055 5.753zm49.229 1.373c-4.604.366-9.248.782-13.806 1.236-.236.024-.472.035-.704.035-3.553 0-6.596-2.694-6.956-6.305-.385-3.847 2.423-7.276 6.27-7.66 4.651-.465 9.391-.889 14.087-1.262 3.863-.326 7.227 2.569 7.532 6.423.306 3.855-2.57 7.227-6.423 7.533zm357.303 99.141c0 37.375-43.18 71.233-118.468 92.892-.646.187-1.299.275-1.938.275-3.042 0-5.841-1.998-6.724-5.066-1.069-3.716 1.076-7.594 4.791-8.662 67.839-19.517 108.339-49.213 108.339-79.438 0-33.78-50.314-66.504-131.309-85.399-3.766-.878-6.105-4.642-5.227-8.406.878-3.766 4.646-6.105 8.406-5.227 41.814 9.755 76.88 23.471 101.406 39.666 26.642 17.59 40.724 38.118 40.724 59.365zm-331.431-313.801c0-43.309-35.234-78.543-78.543-78.543s-78.543 35.234-78.543 78.543c0 36.775 25.931 68.651 61.26 76.615l-3.322 112.798c-.056 1.892.657 3.725 1.975 5.082s3.13 2.124 5.022 2.124h27.217c1.893 0 3.704-.767 5.022-2.124 1.317-1.357 2.03-3.19 1.975-5.082l-3.324-112.798c35.33-7.963 61.261-39.84 61.261-76.615zm-143.086 0c0-35.589 28.954-64.543 64.543-64.543s64.543 28.954 64.543 64.542c0 29.295-20.019 54.805-47.683 62.301l-.133-4.533 24.584-26.874c2.527-2.763 2.433-7.026-.216-9.674l-10.593-10.592c-2.647-2.649-6.912-2.743-9.674-.215l-5.925 5.419-.42-9.453c-.167-3.741-3.248-6.689-6.993-6.689h-14.98c-3.745 0-6.826 2.948-6.993 6.688l-.421 9.454-5.924-5.419c-2.764-2.529-7.027-2.434-9.674.215l-10.593 10.593c-2.648 2.648-2.743 6.911-.216 9.674l24.583 26.874-.134 4.533c-27.663-7.497-47.681-33.006-47.681-62.301zm58.144 182.619 3.749-127.276c.054-1.819-.604-3.588-1.832-4.931l-21.979-24.028 1.125-1.124 12.035 11.01c2.006 1.834 4.893 2.341 7.403 1.302 2.512-1.04 4.193-3.44 4.314-6.156l.789-17.728h1.59l.788 17.728c.121 2.715 1.803 5.116 4.314 6.156s5.397.533 7.403-1.302l12.036-11.01 1.125 1.125-21.98 24.028c-1.229 1.343-1.886 3.111-1.832 4.931l3.75 127.276h-12.798zm326.031-106.004-3.323 112.798c-.056 1.892.657 3.725 1.975 5.082s3.13 2.124 5.022 2.124h27.217c1.893 0 3.704-.767 5.022-2.124 1.317-1.357 2.03-3.19 1.975-5.082l-3.324-112.798c35.33-7.963 61.261-39.84 61.261-76.615 0-43.309-35.234-78.543-78.543-78.543s-78.543 35.234-78.543 78.542c0 36.776 25.931 68.653 61.261 76.616zm10.883 106.004 3.75-127.276c.054-1.819-.604-3.588-1.832-4.931l-21.98-24.028 1.125-1.124 12.035 11.01c2.006 1.834 4.893 2.341 7.403 1.302 2.512-1.04 4.193-3.44 4.314-6.156l.789-17.728h1.59l.789 17.728c.121 2.716 1.803 5.116 4.314 6.156 2.51 1.04 5.397.533 7.403-1.302l12.035-11.01 1.125 1.124-21.98 24.028c-1.229 1.343-1.886 3.111-1.832 4.931l3.75 127.276zm6.399-247.162c35.589 0 64.543 28.954 64.543 64.542 0 29.296-20.019 54.805-47.683 62.301l-.133-4.533 24.584-26.874c2.527-2.763 2.433-7.026-.216-9.674l-10.593-10.592c-2.647-2.649-6.912-2.743-9.674-.215l-5.924 5.419-.421-9.454c-.167-3.741-3.248-6.688-6.993-6.688h-14.98c-3.745 0-6.826 2.948-6.993 6.688l-.421 9.454-5.924-5.419c-2.764-2.529-7.027-2.434-9.674.215l-10.593 10.593c-2.648 2.648-2.743 6.911-.216 9.674l24.584 26.874-.134 4.533c-27.665-7.496-47.683-33.005-47.683-62.301.001-35.589 28.955-64.543 64.544-64.543z"></path></svg>