<?xml version="1.0" standalone="no"?>
<!DOCTYPE svg PUBLIC "-//W3C//DTD SVG 20010904//EN"
 "http://www.w3.org/TR/2001/REC-SVG-20010904/DTD/svg10.dtd">
<svg version="1.0" xmlns="http://www.w3.org/2000/svg"
 width="262.000000pt" height="275.000000pt" viewBox="0 0 262.000000 275.000000"
 preserveAspectRatio="xMidYMid meet">
<metadata>
Created by potrace 1.10, written by Peter Selinger 2001-2011
</metadata>
<g transform="translate(0.000000,275.000000) scale(0.100000,-0.100000)"
fill="#000000" stroke="none">
<path d="M1228 2730 c-113 -9 -225 -32 -323 -67 -74 -27 -226 -101 -260 -127
-11 -8 28 9 86 38 197 98 371 139 599 140 157 0 250 -12 374 -51 112 -35 227
-89 223 -105 -2 -7 -2 -10 0 -5 3 4 9 7 15 7 14 0 119 -71 202 -138 l68 -55
-98 -98 c-84 -84 -100 -97 -114 -86 -8 7 -28 19 -45 27 -16 8 -44 24 -61 36
-37 27 -121 67 -140 67 -8 0 -14 5 -14 10 0 5 -7 6 -16 3 -8 -3 -12 -2 -9 4 4
6 -7 10 -24 10 -17 0 -31 5 -31 11 0 5 -5 7 -10 4 -6 -4 -32 0 -58 8 -154 49
-368 45 -537 -10 -349 -113 -591 -379 -673 -738 -10 -45 -15 -117 -15 -205 0
-114 4 -151 26 -234 15 -55 40 -128 57 -164 33 -71 35 -76 20 -67 -13 8 -1
-26 18 -47 8 -10 18 -15 23 -12 4 2 13 -5 19 -16 6 -11 31 -46 56 -78 27 -34
32 -43 12 -22 -18 20 -46 51 -61 70 l-28 35 20 -41 c21 -44 160 -194 179 -194
7 0 12 -4 12 -8 0 -8 -200 -180 -227 -196 -11 -6 -25 2 -50 28 -19 19 -32 39
-29 44 6 10 -28 45 -36 37 -3 -3 -13 5 -24 17 -10 12 -13 18 -7 14 23 -13 13
9 -24 49 -20 22 -33 33 -29 25 4 -8 -4 -2 -18 15 -16 19 -24 38 -21 52 2 13 0
23 -3 23 -7 0 -75 136 -72 142 1 2 -10 27 -25 56 -14 28 -23 57 -20 62 3 6 2
10 -4 10 -5 0 -13 14 -16 31 -5 21 -10 27 -15 19 -5 -8 -12 7 -19 39 -13 61
-13 84 -1 56 8 -16 9 -14 5 10 -2 17 -4 32 -4 35 -1 3 -6 -2 -11 -10 -8 -12
-10 -11 -10 8 0 12 5 22 10 22 15 0 12 16 -5 34 -8 8 -15 23 -14 33 0 16 1 16
8 -2 4 -11 7 45 7 124 -1 78 2 145 5 147 3 2 9 29 13 60 6 56 27 135 48 184 6
14 10 35 9 48 -1 12 3 22 9 22 6 0 8 5 5 10 -3 6 -2 10 4 10 6 0 8 6 5 14 -3
7 2 16 11 20 9 3 13 11 9 17 -4 7 0 17 8 23 16 12 18 16 18 44 0 10 9 28 20
39 10 12 22 33 26 47 4 16 11 23 18 19 6 -3 8 -3 4 2 -8 8 65 109 119 164 18
19 33 38 33 43 0 5 5 6 10 3 6 -3 10 0 10 8 0 13 81 95 88 89 3 -3 42 26 90
66 l27 23 -30 -14 c-97 -47 -261 -200 -349 -326 -56 -80 -152 -257 -149 -278
0 -7 -3 -11 -7 -8 -11 7 -43 -102 -34 -116 5 -8 3 -9 -6 -4 -10 6 -12 1 -7
-26 4 -19 3 -28 -1 -21 -32 48 -52 -373 -27 -538 18 -113 65 -251 131 -385 60
-120 123 -207 236 -329 l74 -80 148 124 c81 67 143 126 139 129 -180 146 -286
301 -350 508 -24 81 -27 103 -27 263 -1 137 3 189 17 238 79 286 257 507 512
634 176 88 340 115 542 88 149 -20 317 -88 455 -182 l89 -61 119 118 119 119
-37 33 c-108 95 -329 223 -471 272 -106 36 -177 49 -376 65 -22 2 -84 0 -137
-4z m-1181 -1317 c-2 -21 -4 -4 -4 37 0 41 2 58 4 38 2 -21 2 -55 0 -75z"/>
<path d="M1445 2680 c40 -14 127 -21 120 -11 -2 5 -16 11 -30 13 -15 3 -22 1
-18 -5 4 -6 0 -8 -10 -4 -8 3 -33 8 -54 11 -36 6 -36 5 -8 -4z"/>
<path d="M1640 2650 c0 -5 7 -7 15 -4 8 4 15 1 15 -5 0 -6 6 -8 14 -5 7 3 30
-2 50 -10 20 -8 36 -11 36 -7 0 5 -26 16 -58 25 -68 19 -72 19 -72 6z"/>
<path d="M2410 2404 c0 -4 9 -17 20 -29 10 -11 31 -42 45 -68 23 -44 24 -53
14 -89 -14 -52 -62 -103 -87 -92 -9 4 -42 9 -72 11 -78 5 -113 -18 -131 -86
-17 -66 -35 -72 -94 -27 -44 34 -48 35 -108 30 -82 -8 -127 -31 -153 -80 -19
-36 -54 -59 -54 -35 0 16 -77 13 -110 -4 -43 -22 -90 -96 -90 -140 0 -30 3
-36 16 -31 9 3 21 6 29 6 7 0 18 13 25 29 7 17 25 35 42 42 27 11 36 10 72 -9
24 -13 59 -22 85 -22 40 0 49 5 85 45 53 57 88 60 141 13 23 -20 52 -34 79
-38 72 -11 116 15 146 86 l18 41 74 -4 c65 -4 77 -2 107 19 50 34 71 81 71
158 0 75 -19 124 -73 187 -39 48 -97 99 -97 87z m135 -215 c8 -48 -19 -113
-58 -141 -24 -17 -43 -21 -94 -20 -80 2 -97 -6 -128 -67 -18 -37 -33 -52 -58
-60 -37 -13 -55 -8 -107 25 -73 47 -156 40 -185 -16 -22 -42 -62 -54 -121 -37
-64 18 -109 7 -132 -33 -19 -34 -33 -39 -27 -11 7 36 24 59 54 72 16 7 28 16
25 20 -2 4 13 5 33 3 69 -10 102 -11 98 -4 -3 4 6 19 19 33 13 14 21 28 18 31
-5 6 14 10 31 7 5 -1 6 3 2 9 -16 25 103 43 131 19 11 -9 14 -9 14 0 0 6 -10
16 -22 21 -18 8 -19 9 -4 7 10 -1 24 -11 30 -22 13 -23 47 -51 59 -47 4 1 7
-2 7 -8 0 -5 8 -9 19 -7 25 4 73 36 67 46 -3 4 4 18 15 29 13 15 15 22 7 23
-10 0 -10 2 0 6 6 2 12 11 12 18 0 18 57 27 125 19 47 -5 60 -2 76 13 10 10
28 27 39 37 11 11 21 29 22 40 0 12 2 26 3 31 2 6 3 15 4 20 2 18 20 -19 26
-56z m-55 -179 c-14 -11 -34 -19 -45 -19 -15 0 -11 5 15 19 45 25 62 25 30 0z"/>
<path d="M1740 2191 c0 -39 -31 -75 -78 -89 -22 -7 -39 -18 -39 -26 0 -11 5
-13 19 -5 10 5 18 7 18 4 0 -3 15 2 33 12 17 9 36 17 40 18 4 0 12 7 17 15 5
8 12 11 16 8 11 -11 -24 -57 -59 -78 -39 -24 -74 -25 -144 -3 -49 15 -56 15
-86 1 -20 -9 -39 -29 -46 -46 -18 -44 -63 -62 -137 -55 -78 7 -120 -13 -142
-68 -17 -44 -32 -52 -28 -14 4 37 63 118 81 111 8 -3 15 -1 15 5 0 5 26 8 62
7 57 -3 63 -1 74 20 8 17 13 20 17 10 4 -9 6 -7 6 5 1 9 -3 17 -9 17 -5 0 -7
7 -4 15 4 8 9 13 13 10 9 -5 41 31 41 45 0 6 6 11 13 12 41 5 73 5 82 0 6 -4
21 -8 34 -10 21 -3 23 -1 11 12 -18 23 -69 34 -110 25 -42 -9 -82 -54 -99
-111 l-13 -40 -59 6 c-72 8 -103 -7 -143 -67 -26 -40 -36 -36 -15 6 10 21 10
22 -6 2 -10 -13 -14 -30 -10 -50 5 -23 4 -26 -4 -15 -8 11 -11 5 -11 -28 l0
-43 37 3 c29 2 39 8 41 23 6 29 40 63 72 70 16 4 44 0 65 -9 75 -32 132 -10
166 62 27 55 55 69 108 54 57 -18 90 -15 136 13 30 17 51 40 71 79 l29 55 -30
31 c-36 37 -45 38 -45 1z"/>
<path d="M1558 2137 c29 -18 49 -37 45 -41 -4 -5 2 -3 14 5 20 12 19 14 -38
41 -78 37 -85 35 -21 -5z"/>
<path d="M1015 1619 c-3 -68 -17 -275 -31 -459 -13 -184 -24 -349 -24 -366 0
-27 -19 -47 -160 -173 -88 -79 -160 -145 -160 -148 0 -3 28 19 62 49 33 29 93
80 132 112 144 121 232 199 265 234 19 20 30 30 26 22 -5 -8 19 13 54 48 34
34 67 62 72 62 6 0 25 11 44 25 18 14 35 22 37 18 4 -9 72 -68 243 -208 146
-119 228 -197 216 -205 -5 -3 3 -14 18 -24 l26 -20 -20 24 c-43 50 12 9 160
-120 85 -74 152 -136 150 -138 -3 -3 -12 1 -22 9 -15 12 -16 12 -10 -5 8 -20
-8 -46 -27 -46 -13 0 -37 18 -146 110 -42 36 -87 72 -99 80 -13 8 -37 29 -55
45 -73 69 -104 93 -110 88 -3 -4 -6 -1 -6 5 0 7 -9 12 -19 12 -11 0 -23 4 -26
10 -4 6 1 7 12 4 15 -5 15 -4 3 4 -8 6 -17 9 -20 7 -3 -2 -64 46 -135 106 -72
60 -132 109 -135 109 -3 0 -102 -79 -220 -176 -301 -246 -370 -300 -383 -302
-5 0 -17 -11 -28 -23 -10 -12 -19 -18 -19 -13 0 5 -7 -2 -16 -14 -8 -12 -19
-20 -24 -17 -5 3 -11 -3 -15 -14 -4 -13 -13 -18 -26 -16 -11 2 -17 0 -14 -5
13 -21 -19 -20 -39 1 -17 19 -17 20 -2 8 14 -10 18 -10 12 -1 -5 8 3 24 23 43
17 16 31 26 31 23 0 -3 13 7 29 22 57 56 73 69 83 66 5 -1 7 2 4 6 -3 5 4 18
16 28 12 11 19 14 15 8 -7 -12 40 -11 51 2 4 4 0 5 -10 1 -9 -3 -19 -3 -22 0
-9 9 14 43 29 43 8 0 15 5 15 10 0 6 5 10 11 10 5 0 7 -6 3 -12 -5 -9 -2 -9 9
1 20 16 22 32 5 27 -7 -1 -10 -1 -6 1 4 3 11 5 15 5 5 1 14 8 21 17 10 12 12
12 6 1 -7 -13 -5 -13 9 -1 19 15 23 26 6 15 -7 -4 -10 -2 -8 5 3 7 7 11 11 9
3 -2 17 10 31 26 18 20 26 24 30 15 4 -11 6 -11 6 0 1 8 11 26 24 40 18 21 19
23 2 11 -20 -15 -126 -101 -135 -110 -3 -3 -39 -32 -80 -65 -41 -33 -119 -97
-173 -142 -97 -82 -122 -99 -96 -65 10 12 8 12 -10 -3 l-23 -20 39 -33 c21
-19 45 -37 53 -42 11 -5 117 78 388 302 l373 310 62 -55 c34 -30 198 -169 365
-310 l303 -256 54 42 c29 23 53 45 52 48 -1 3 -65 60 -142 127 -77 67 -166
145 -197 174 l-57 53 -34 494 c-27 378 -38 495 -48 502 -8 5 -50 9 -95 9 l-80
0 -12 -162 c-6 -90 -17 -251 -23 -358 -6 -107 -13 -201 -15 -209 -3 -10 -15
-5 -42 20 -20 19 -49 45 -64 58 l-27 23 -27 -21 c-15 -12 -28 -20 -30 -19 -1
2 -14 158 -29 348 -15 190 -29 346 -30 348 -2 2 -46 6 -98 9 l-95 6 -7 -124z
m138 94 c-5 -12 -2 -15 9 -10 10 3 19 0 22 -9 4 -11 -7 -14 -58 -14 -36 0 -71
-3 -80 -6 -11 -4 -14 1 -11 23 2 15 4 29 4 31 1 1 28 2 61 2 51 0 59 -2 53
-17z m467 -33 c-44 -7 -44 -7 -10 -10 19 -1 41 -2 48 -1 6 1 12 -6 12 -16 0
-16 -10 -18 -75 -18 l-75 0 0 28 0 27 73 -2 c66 -1 68 -2 27 -8z m-437 -78
c-13 -2 -23 -8 -23 -13 0 -5 -29 -9 -65 -9 -50 0 -65 3 -65 15 0 10 16 15 63
17 34 2 73 1 87 -2 24 -4 24 -5 3 -8z m-84 -41 c9 -6 21 -5 32 2 10 6 20 9 22
7 3 -4 12 -155 17 -295 0 -5 5 -3 10 5 6 8 10 42 9 75 0 33 0 74 1 90 l2 30 8
-27 c5 -16 11 -61 15 -100 4 -40 9 -76 12 -80 5 -10 -3 -10 -97 -9 -75 2 -106
-7 -99 -28 3 -7 40 -13 97 -15 51 -2 94 -5 96 -7 7 -9 14 -165 8 -176 -10 -16
-36 -20 -38 -5 -1 6 -2 48 -3 92 0 46 -5 80 -11 80 -6 0 -10 -47 -10 -120 0
-120 0 -121 -26 -130 -34 -13 -33 -14 -30 23 1 17 -2 40 -7 51 -6 12 -5 16 1
12 6 -3 9 5 8 19 0 14 -3 25 -6 25 -3 0 -5 24 -5 54 0 39 3 52 13 49 6 -3 12
0 12 6 0 6 -9 11 -19 11 -18 0 -19 -9 -20 -145 -1 -80 -5 -155 -10 -168 -12
-31 -46 -59 -76 -62 -21 -3 -25 1 -25 21 0 13 4 24 9 24 5 0 7 8 4 19 -3 10 0
22 6 25 6 4 11 13 11 19 0 7 -4 6 -11 -3 -7 -11 -9 -2 -6 35 3 28 8 111 12
185 3 74 10 136 15 138 4 2 6 37 3 79 -5 58 -3 79 8 87 17 13 26 51 10 41 -7
-4 -11 5 -11 22 0 19 7 32 23 39 29 15 30 15 46 5z m581 -6 c0 -12 -16 -15
-85 -15 -78 0 -96 5 -78 23 3 4 42 7 85 7 63 0 78 -3 78 -15z m-31 -280 c1
-77 5 -105 11 -93 6 9 9 79 8 157 -2 78 0 141 5 141 4 0 7 -6 8 -12 0 -7 2
-20 3 -28 2 -8 6 -64 10 -125 4 -60 10 -121 13 -133 6 -23 4 -24 -63 -22 -116
4 -124 2 -124 -20 0 -18 7 -20 88 -20 48 0 92 -4 97 -8 6 -4 10 -20 11 -37 3
-74 16 -279 19 -294 9 -48 -14 -40 -111 37 -54 44 -109 91 -122 105 l-23 25
13 188 c11 160 14 179 19 124 l6 -65 2 60 c1 33 4 74 6 90 12 99 13 135 5 140
-13 8 14 35 34 35 9 0 16 -6 16 -12 0 -9 2 -10 8 -2 4 7 16 13 27 16 18 3 21
-4 26 -67 4 -38 7 -119 8 -180z m-132 113 c-2 -18 -4 -4 -4 32 0 36 2 50 4 33
2 -18 2 -48 0 -65z"/>
<path d="M1090 1509 c0 -31 1 -32 16 -17 16 15 16 18 0 33 -15 15 -16 14 -16
-16z"/>
<path d="M1102 1478 c-8 -8 -12 -45 -12 -107 0 -73 3 -92 12 -83 12 12 18 62
7 62 -3 0 -3 20 1 45 4 26 3 48 -3 52 -5 3 -4 9 3 13 7 4 11 13 9 19 -3 9 -8
8 -17 -1z"/>
<path d="M1579 1453 c-9 -226 -6 -281 11 -254 12 20 12 278 0 286 -6 4 -11 -8
-11 -32z"/>
<path d="M1572 1013 c0 -96 16 -155 19 -68 1 28 1 70 0 94 -1 27 3 48 11 53 9
5 7 8 -8 8 -20 0 -21 -6 -22 -87z"/>
<path d="M1651 1033 c1 -84 15 -247 18 -213 1 14 3 82 4 152 2 97 -1 128 -10
128 -9 0 -13 -20 -12 -67z"/>
<path d="M2216 1016 c-19 -41 -47 -95 -61 -118 -22 -36 -23 -39 -4 -18 12 14
40 62 62 108 43 90 64 107 24 19 -32 -69 -94 -168 -105 -165 -4 2 -39 -29 -77
-67 -39 -39 -95 -91 -125 -117 l-55 -46 26 -20 c14 -12 79 -66 144 -121 66
-56 123 -101 128 -101 22 0 199 194 260 286 59 89 137 238 137 261 0 8 -281
165 -305 171 -8 2 -28 -28 -49 -72z m212 -41 c115 -65 112 -56 62 -155 -54
-106 -152 -243 -239 -333 l-88 -90 -121 102 c-67 57 -122 105 -122 107 0 2 7
1 15 -2 8 -4 15 -1 15 5 0 6 6 11 13 11 6 0 27 16 44 35 18 19 37 35 42 35 5
0 38 37 75 83 93 116 101 128 116 167 21 53 42 82 56 76 23 -9 23 6 1 26 l-22
20 25 -14 c14 -8 71 -41 128 -73z m-345 -202 c-53 -62 -160 -153 -178 -153 -5
1 6 13 25 27 19 15 71 63 115 108 44 45 82 80 84 78 2 -1 -18 -29 -46 -60z"/>
<path d="M1280 731 c-53 -54 -277 -236 -292 -236 -7 -1 -12 -6 -11 -13 3 -10
-35 -38 -47 -34 -3 1 -5 -2 -5 -8 0 -12 -40 -41 -47 -34 -3 2 -11 -4 -19 -13
-12 -16 -12 -17 1 -8 9 6 5 0 -9 -12 -14 -12 -30 -21 -35 -20 -6 1 -10 -3 -9
-10 3 -12 -32 -37 -52 -38 -5 0 -10 -6 -10 -13 0 -14 -25 -33 -36 -26 -4 2
-13 -4 -20 -14 -13 -16 -13 -16 6 -2 18 14 19 14 7 -2 -8 -9 -19 -15 -27 -12
-7 3 -16 1 -19 -5 -9 -14 172 -103 294 -144 58 -20 146 -42 195 -51 123 -20
321 -15 442 12 103 23 262 86 341 135 l52 33 -182 154 c-100 85 -231 197 -292
248 -61 52 -125 107 -143 123 -17 16 -35 28 -40 28 -4 -1 -24 -18 -43 -38z
m114 -65 c14 -10 23 -23 19 -29 -3 -5 -1 -7 4 -4 6 4 20 -1 31 -11 11 -9 33
-26 48 -37 16 -11 45 -36 66 -56 20 -20 40 -34 43 -31 5 5 9 -14 6 -31 -1 -5
2 -6 7 -3 5 3 14 -4 22 -14 8 -10 17 -17 20 -15 4 2 39 -24 77 -58 39 -34 91
-80 117 -102 25 -22 46 -45 46 -51 0 -13 -129 -86 -141 -78 -5 3 -9 1 -9 -4 0
-5 -8 -12 -17 -15 -211 -59 -341 -81 -423 -72 -25 2 -70 7 -100 11 -30 3 -63
6 -72 7 -10 1 -18 5 -18 9 0 4 -7 5 -15 2 -8 -4 -22 -1 -30 6 -9 7 -18 10 -22
7 -3 -3 -18 0 -34 8 -15 8 -36 15 -45 15 -10 0 -26 8 -37 17 -11 10 -17 12
-13 5 5 -9 -7 -6 -32 7 -22 11 -42 17 -46 14 -3 -4 -6 -1 -6 5 0 7 -6 12 -14
12 -21 0 -99 44 -87 48 6 2 8 9 5 14 -4 7 -2 8 4 4 6 -4 20 2 32 14 11 11 17
20 14 20 -3 0 -2 5 1 10 5 8 12 7 23 -2 13 -11 15 -10 10 7 -5 20 14 49 26 38
3 -3 8 2 12 11 3 9 11 16 16 16 6 0 30 20 54 44 23 24 52 47 63 51 12 3 19 11
16 16 -4 5 5 14 19 21 14 6 26 15 26 19 0 4 9 11 20 14 11 4 18 11 15 16 -4 5
-2 9 3 9 5 0 22 11 38 25 16 14 35 25 42 25 7 0 10 5 7 10 -6 9 41 35 58 32 4
-1 7 2 7 8 0 6 -6 10 -12 10 -13 1 21 24 35 25 4 0 12 6 16 14 6 8 19 12 35 9
15 -3 26 -1 27 6 0 6 4 2 9 -9 4 -11 20 -28 34 -39z"/>
<path d="M1140 485 l0 -65 60 0 60 0 0 65 0 65 -60 0 -60 0 0 -65z m91 18 c6
-34 5 -54 -2 -59 -5 -3 -9 1 -9 8 0 8 -3 9 -8 3 -14 -19 -32 -15 -38 9 -3 14
-3 30 1 35 7 12 54 15 56 4z"/>
<path d="M1380 496 c0 -30 -2 -60 -5 -68 -4 -10 9 -12 60 -10 l65 4 0 64 0 64
-60 0 -60 0 0 -54z m77 12 c6 -7 13 -23 16 -35 5 -21 1 -23 -29 -23 -19 0 -34
2 -34 4 0 2 -3 11 -6 19 -5 14 19 47 35 47 5 0 13 -6 18 -12z"/>
<path d="M1510 410 c0 -5 -19 -10 -42 -11 -39 -1 -40 -2 -16 -9 34 -10 68 -2
68 16 0 8 -2 14 -5 14 -3 0 -5 -4 -5 -10z"/>
<path d="M914 260 l-1 -60 63 0 64 0 0 60 0 60 -63 0 -63 0 0 -60z m91 -5 c0
-32 -15 -39 -47 -23 -18 9 -24 39 -11 52 4 4 19 6 33 4 20 -2 25 -8 25 -33z"/>
<path d="M1140 260 l0 -60 60 0 60 0 0 60 0 60 -60 0 -60 0 0 -60z m94 14 c3
-9 6 -21 6 -29 0 -15 -35 -26 -56 -18 -14 5 -19 44 -7 56 12 13 51 7 57 -9z"/>
<path d="M1378 258 l-3 -63 63 3 62 4 0 59 0 59 -59 0 -59 0 -4 -62z m96 17
c13 -35 -14 -58 -51 -44 -22 8 -31 38 -16 52 12 13 61 7 67 -8z"/>
<path d="M1610 260 l0 -60 60 0 60 0 0 60 0 60 -60 0 -60 0 0 -60z m85 27 c23
-18 14 -72 -11 -63 -9 3 -24 6 -35 6 -37 0 -16 68 22 70 3 0 13 -6 24 -13z"/>
<path d="M1515 198 c-6 -15 -20 -18 -78 -18 -83 0 -80 -16 4 -23 47 -4 59 -2
73 15 10 11 15 25 13 31 -3 7 -7 5 -12 -5z"/>
<path d="M1746 195 c-4 -11 -23 -15 -78 -15 -51 0 -68 -3 -58 -10 8 -5 40 -10
71 -10 42 0 60 5 73 19 10 11 13 22 8 25 -6 3 -12 -1 -16 -9z"/>
<path d="M993 181 c-52 -5 -61 -8 -53 -21 5 -8 10 -10 10 -3 0 7 18 10 50 9
33 -2 51 2 54 11 3 7 4 12 3 11 -1 -1 -30 -4 -64 -7z"/>
<path d="M1170 166 c19 -8 40 -10 45 -6 6 5 26 6 45 4 25 -3 31 -1 20 6 -8 5
-44 9 -80 9 -65 -1 -65 -1 -30 -13z"/>
</g>
</svg>
